<svg xmlns="http://www.w3.org/2000/svg" width="160" height="31.44"><path d="M50.4 17.04h6.59v-2.8H50.4V11.2h7.33V8.27H47.11V23h10.85v-2.9H50.4zM77.35 8.27h-3.96l-2.8 4.36-2.81-4.36h-3.94l4.62 7.19L63.51 23h3.96l3.12-4.84L73.73 23h4l-4.97-7.63zM82.75 11.12h4.17V23h3.29V11.12h4.17V8.27H82.75zM101.09 19.46c-.52 0-.96.18-1.32.54-.36.36-.54.8-.54 1.32s.18.96.54 1.32c.36.36.8.54 1.32.54s.96-.18 1.32-.54c.36-.36.54-.8.54-1.32s-.18-.96-.54-1.32c-.36-.36-.8-.54-1.32-.54zM120.46 17.76l-7.23-9.49h-3.08V23h3.29v-9.23l7.02 9.23h3.29V8.27h-3.29zM134.65 17.04h6.59v-2.8h-6.59V11.2h7.33V8.27h-10.62V23h10.85v-2.9h-7.56zM148.36 8.27v2.85h4.18V23h3.29V11.12H160V8.27zM0 31.44h31.44V0H0v31.44zM3.89 3.89h23.67v23.67h-5.31V9.2H3.89V3.89zm0 9.19h14.47v14.47h-5.29v-9.18H3.89v-5.29zm0 9.18h5.3v5.3h-5.3v-5.3z" /></svg>